<svg width="25" height="27" viewBox="0 0 25 27" fill="none" xmlns="http://www.w3.org/2000/svg">
<path d="M13.7363 0C11.004 0 8.38355 1.39443 6.45151 3.87653C4.51947 6.35862 3.43407 9.72507 3.43407 13.2353H0L4.45284 18.9559L4.53297 19.1618L9.15751 13.2353H5.72344C5.72344 7.54411 9.30632 2.94118 13.7363 2.94118C18.1662 2.94118 21.7491 7.54411 21.7491 13.2353C21.7491 18.9265 18.1662 23.5294 13.7363 23.5294C11.527 23.5294 9.52381 22.3676 8.0815 20.5L6.45604 22.5882C7.41004 23.8206 8.54451 24.7981 9.79403 25.4645C11.0435 26.1308 12.3834 26.4727 13.7363 26.4706C16.4686 26.4706 19.089 25.0761 21.021 22.594C22.9531 20.112 24.0385 16.7455 24.0385 13.2353C24.0385 9.72507 22.9531 6.35862 21.021 3.87653C19.089 1.39443 16.4686 5.23063e-08 13.7363 0ZM12.5916 7.35294V14.7059L17.4565 18.4118L18.3379 16.5147L14.3086 13.4412V7.35294H12.5916Z" fill="black"/>
</svg>
