<svg width="25" height="27" viewBox="0 0 25 27" fill="none" xmlns="http://www.w3.org/2000/svg">
<path d="M8.41346 11.9118H19.2308V14.5588H8.41346V11.9118ZM19.2308 6.61765H4.80769V9.26471H19.2308V6.61765ZM24.0385 2.64706V26.4706L19.2308 21.1765H2.40385C1.76631 21.1765 1.15488 20.8976 0.70407 20.4012C0.253262 19.9047 0 19.2315 0 18.5294V2.64706C0 1.19118 1.08173 0 2.40385 0H21.6346C22.2722 0 22.8836 0.278886 23.3344 0.775306C23.7852 1.27173 24.0385 1.94502 24.0385 2.64706ZM21.6346 2.64706H2.40385V18.5294H20.2284L21.6346 20.0779V2.64706Z" fill="black"/>
</svg>
