<svg width="25" height="27" viewBox="0 0 25 27" fill="none" xmlns="http://www.w3.org/2000/svg">
<path d="M24.0385 13.2338C24.0385 9.72396 22.7722 6.35789 20.5181 3.87608C18.2641 1.39427 15.2069 0 12.0192 0C8.83153 0 5.77439 1.39427 3.52035 3.87608C1.26631 6.35789 0 9.72396 0 13.2338L0.0105168 13.8061L0.0495793 14.438C0.185362 16.1026 0.60807 17.7235 1.29507 19.2138L1.38972 19.4123L0.0225362 25.4403L0.00150229 25.5776V25.7132C0.0110448 25.8324 0.0439616 25.9479 0.0979805 26.0517C0.151999 26.1555 0.225834 26.2452 0.314391 26.3146C0.402947 26.3839 0.504115 26.4313 0.610914 26.4534C0.717714 26.4756 0.827601 26.4719 0.932993 26.4427L6.40925 24.9374L6.58954 25.0433C8.42215 26.065 10.462 26.5525 12.5144 26.4593C14.5668 26.3662 16.5633 25.6954 18.3133 24.511C20.0633 23.3266 21.5084 21.6681 22.5107 19.6939C23.5129 17.7196 24.0389 15.4955 24.0385 13.2338ZM6.00962 9.92533C6.00962 9.4866 6.1679 9.06584 6.44966 8.75562C6.73141 8.44539 7.11356 8.2711 7.51202 8.2711H12.0192C12.4177 8.2711 12.7998 8.44539 13.0816 8.75562C13.3633 9.06584 13.5216 9.4866 13.5216 9.92533V16.5422C13.5216 16.9809 13.3633 17.4017 13.0816 17.7119C12.7998 18.0221 12.4177 18.1964 12.0192 18.1964H7.51202C7.11356 18.1964 6.73141 18.0221 6.44966 17.7119C6.1679 17.4017 6.00962 16.9809 6.00962 16.5422V9.92533ZM16.7458 9.68381C16.8508 9.56794 16.9846 9.48896 17.1304 9.45687C17.2761 9.42478 17.4272 9.44102 17.5646 9.50354C17.702 9.56606 17.8194 9.67204 17.902 9.80808C17.9847 9.94412 18.0288 10.1041 18.0288 10.2677V16.1998C18.0288 16.3634 17.9847 16.5234 17.902 16.6595C17.8194 16.7955 17.702 16.9015 17.5646 16.964C17.4272 17.0265 17.2761 17.0428 17.1304 17.0107C16.9846 16.9786 16.8508 16.8996 16.7458 16.7837L15.024 14.888V11.5795L16.7458 9.68381Z" fill="black"/>
</svg>
