<svg width="25" height="27" viewBox="0 0 25 27" fill="none" xmlns="http://www.w3.org/2000/svg">
<path d="M12.0192 13.2353C10.3666 13.2353 8.95182 12.5873 7.77494 11.2914C6.59806 9.9954 6.00962 8.4375 6.00962 6.61765C6.00962 4.79779 6.59806 3.23989 7.77494 1.94393C8.95182 0.647978 10.3666 0 12.0192 0C13.6719 0 15.0866 0.647978 16.2635 1.94393C17.4404 3.23989 18.0288 4.79779 18.0288 6.61765C18.0288 8.4375 17.4404 9.9954 16.2635 11.2914C15.0866 12.5873 13.6719 13.2353 12.0192 13.2353ZM0 26.4706V21.8382C0 20.9007 0.219351 20.0388 0.658053 19.2524C1.09575 18.4671 1.67768 17.8676 2.40385 17.454C3.95633 16.5993 5.53385 15.9579 7.13642 15.53C8.73898 15.1031 10.3666 14.8897 12.0192 14.8897C13.6719 14.8897 15.2995 15.1031 16.902 15.53C18.5046 15.9579 20.0821 16.5993 21.6346 17.454C22.3608 17.8676 22.9427 18.4671 23.3804 19.2524C23.8191 20.0388 24.0385 20.9007 24.0385 21.8382V26.4706H0Z" fill="black"/>
</svg>
